<?xml version="1.0" encoding="UTF-8"?>
<svg id="katman_1" xmlns="http://www.w3.org/2000/svg" viewBox="0 0 162 77">
  <path d="M44.91,60.4c-.47.61-.77,1.01-2.18,1.01l-10.36-.05.05-7.02h9.47c.58,0,1.03.14,1.26.4.12.13.17.3.16.46l-.02.16.9.09.06-5.07-.88-.09v.18c0,.42-.38.87-1.47.87l-9.52-.05.05-4.8h9.97c1.58,0,1.88.24,2.42,1l.06.08.86-.16-1.3-4.09-.14.02c-.69.1-1.22.15-1.56.15l-16.23-.06-.1.74h.18c.88,0,1.35.44,1.35,1.28v17c0,.8-.41,1.23-1.16,1.23-.04,0-.08,0-.12,0h-.15s-.1.74-.1.74h16.1c.61,0,1.41.09,1.78.14l.13.02,1.43-4.09-.87-.19-.06.08ZM21.24,63.75h.18l-.09.69h-6.27l-.05-.07c-1.88-2.69-3.73-6.05-4.46-8.04-.43,0-1.86,0-1.86,0h-2.68l-.05,6.11c0,.92.42,1.31,1.39,1.31h.18l-.1.74-7.44-.06.1-.75h.15c.05.01.11.01.16.01.8,0,1.13-.37,1.13-1.26v-17c0-.8-.49-1.26-1.35-1.26h-.18l.1-.74h.28c.58,0,1.92-.03,3.46-.07,1.94-.05,4.15-.11,5.36-.11,7.82,0,11.46,1.97,11.46,6.21,0,2.9-2.22,5.31-5.68,6.19,1.2,2.64,2.73,5.06,4.7,7.4.45.5.89.7,1.57.7M16.19,49.73c0-2.47-2.01-3.48-6.95-3.48-.78,0-1.57.04-2.49.08l-.72.03-.05,7.07c.99.07,2.65.07,3.77.07,4.1,0,6.45-1.37,6.45-3.77M161.82,63.75c-.62,0-1.35-.21-1.35-1.2v-17.09c0-.81.4-1.24,1.16-1.24.04,0,.08,0,.12,0h.15s.1-.74.1-.74l-5.93-.04-.03.12c-.11.45-.36.97-.71,1.44l-6.87,9.42-6.57-9.42c-.39-.56-.61-1.03-.66-1.39l-.02-.14-6.52-.06-.1.74h.18c.32,0,1.35.09,1.35,1.31v17.03c0,.81-.35,1.18-1.13,1.18-.05,0-.1,0-.15,0h-.15s-.1.74-.1.74l7.36.06.1-.74h-.18c-.99,0-1.43-.38-1.43-1.22l.05-12.76,7.64,10.9.95-1.22,7.06-9.72v12.83c0,.75-.41,1.15-1.19,1.15-.05,0-.09,0-.14,0h-.15s-.1.74-.1.74h7.34l.09-.69h-.18ZM123,44.18h.18c.92,0,1.39.35,1.39,1.05v13.33c0,2.13-2.1,3.36-5.76,3.36-4.03,0-6.07-1.15-6.07-3.42v-13.18c0-.79.42-1.14,1.32-1.08h.15s.1-.74.1-.74l-7.44-.06-.1.74h.18c.92,0,1.39.38,1.39,1.14v14.07c0,.59-.04,1.29-.36,1.96l-.06.12.11.08c3.04,2.1,5.88,3.39,10.65,3.39,3.84,0,6.97-1,10.44-3.36l.11-.07-.05-.12c-.33-.77-.38-1.46-.38-2.03v-14.21c0-.79.71-.91,1.13-.91.05,0,.1,0,.15,0h.15s.1-.74.1-.74l-7.25-.06-.1.74ZM72.83,62.93l-.08-.16c-.21-.43-.3-.92-.3-1.64v-5.57c0-.88.41-1.34,1.17-1.29h.15s.1-.74.1-.74l-7.21-.06-.1.74h.18c.97,0,1.35.38,1.35,1.34l-.03,5.43c-1.2.56-2.7.84-4.58.84-5.29,0-8.45-2.97-8.45-7.95s3.09-7.74,8.25-7.74c4.29,0,5.96,1.21,6.58,1.93l.06.07.91-.16-1.17-4.73-.16.04c-.25.07-.76.18-1.35.18-.25,0-.61-.06-1.07-.13-.86-.13-2.04-.32-3.61-.32-6.3,0-12.99,3.8-12.99,10.86s4.83,11,12.61,11c2.84,0,6.5-.72,9.56-1.89l.17-.06ZM78.58,63.7s-.09,0-.13,0h-.15s-.1.74-.1.74l7.02.06.1-.74h-.18c-.96,0-1.39-.42-1.39-1.37l.05-12.81,12.57,13.47c.28.32.63.85.69,1.26l.02.14h3.31v-18.97c0-.8.43-1.24,1.2-1.24.04,0,.08,0,.12,0h.15s.1-.74.1-.74l-7.02-.06-.1.74h.19c.69,0,1.39.43,1.39,1.26l-.05,11.52-11.27-11.95c-.53-.53-.73-1.05-.8-1.39l-.03-.13-5.97-.06-.1.74h.18c.62,0,1.35.32,1.35,1.23v16.97c0,.89-.38,1.32-1.16,1.32M92.52,19.32c.23.09.4.23.49.44h0c.38.87-.85,4.7-2.5,9.6-.32.94-.53,1.66-.71,2.29l-.15.52h.08c.17.03.35.04.52.06h.04s.02-.03.02-.03c.75-1.09,2.67-3.95,4.31-7,2.18-4.05,2.98-6.78,2.39-8.11-.39-.87-1.08-1.37-2.04-1.5-.16-.02-.32-.03-.5-.03-2.25,0-6.31,3.26-7.69,4.96l-.02.02-.02.68.11-.05c.45-.23,4.46-2.28,5.66-1.85M104.68,21.54h0c.24.13.4.32.47.59.25.91-1.48,4.41-3.77,8.88l-.06.12c-.57,1.11-1.06,2.07-1.39,2.78l-.04.07.08.02c.18.05.35.1.52.15h.04s.03-.02.03-.02c1.65-1.76,9.86-10.69,8.92-13.99-.27-.96-.86-1.59-1.74-1.86-.32-.1-.69-.15-1.1-.15h-.03c-3.31,0-5.98,2.5-7.41,3.84l-.12.11-.02.6.1-.04c.87-.34,4.58-1.6,5.51-1.12M81,12.23c1.15,0,2.09-.94,2.09-2.09s-.94-2.09-2.09-2.09-2.09.94-2.09,2.09.94,2.09,2.09,2.09M61.46,34.17h.04c.17-.06.34-.11.52-.16l.08-.02-.04-.08c-.34-.72-.83-1.68-1.4-2.81l-.05-.1c-2.29-4.48-4.02-7.97-3.77-8.88.07-.26.23-.46.48-.59.93-.49,4.64.78,5.51,1.12l.1.04-.02-.6-.12-.11c-1.44-1.34-4.1-3.84-7.41-3.84h-.03c-.41,0-.78.05-1.1.15-.89.27-1.47.89-1.74,1.86-.94,3.31,7.27,12.24,8.92,13.99l.03.03ZM80.32,29.51c.07.42.13.78.18,1.08l.19,1.16h.54s.08,0,.08,0l.19-1.16c.05-.34.13-.76.21-1.27v-.07c1.51-8.98,1.59-12.78,1.55-14,0-.34-.03-.61-.07-.81-.06-.34-.17-.56-.32-.64-.6-.31-1.18-.46-1.78-.46h-.1s-.1,0-.1,0c-.59,0-1.17.15-1.78.46-.15.08-.26.3-.32.64-.04.21-.06.48-.07.81-.03,1.22.05,5.02,1.54,14l.04.26ZM71.7,32.23h.04c.17-.02.35-.04.52-.06h.08s-.15-.51-.15-.51c-.19-.63-.4-1.35-.72-2.3-1.65-4.91-2.87-8.73-2.5-9.59h0c.1-.22.26-.37.5-.46,1.2-.44,5.2,1.61,5.66,1.85l.11.05-.02-.68v-.02c-1.39-1.7-5.45-4.96-7.7-4.96-.18,0-.34.01-.5.03-.97.13-1.66.63-2.04,1.5-1.39,3.1,5.33,13.14,6.7,15.12l.02.03Z"/>
</svg>